<mxfile host="app.diagrams.net" modified="2024-02-09T22:09:03.355Z" agent="Mozilla/5.0 (Windows NT 10.0; Win64; x64) AppleWebKit/537.36 (KHTML, like Gecko) Chrome/121.0.0.0 Safari/537.36 Edg/121.0.0.0" etag="yazyA8M6SJvNWaTIrJAY" version="23.1.2" type="github">
  <diagram name="Page-1" id="5w3Jz7d-zydLKI4MpnNv">
    <mxGraphModel dx="1386" dy="831" grid="1" gridSize="10" guides="1" tooltips="1" connect="1" arrows="1" fold="1" page="1" pageScale="1" pageWidth="850" pageHeight="1100" math="0" shadow="0">
      <root>
        <mxCell id="0" />
        <mxCell id="1" parent="0" />
        <mxCell id="0mtgPo0dhXCJ6GV9Q62t-2" value="RATE MANAGEMENT SERVICES" style="rounded=1;whiteSpace=wrap;html=1;" vertex="1" parent="1">
          <mxGeometry x="852.5" y="340" width="120" height="60" as="geometry" />
        </mxCell>
        <mxCell id="0mtgPo0dhXCJ6GV9Q62t-14" value="" style="edgeStyle=orthogonalEdgeStyle;rounded=0;orthogonalLoop=1;jettySize=auto;html=1;" edge="1" parent="1" source="0mtgPo0dhXCJ6GV9Q62t-4" target="0mtgPo0dhXCJ6GV9Q62t-13">
          <mxGeometry relative="1" as="geometry" />
        </mxCell>
        <mxCell id="0mtgPo0dhXCJ6GV9Q62t-4" value="RATE ENGINE" style="rounded=1;whiteSpace=wrap;html=1;" vertex="1" parent="1">
          <mxGeometry x="942.5" y="220" width="100" height="60" as="geometry" />
        </mxCell>
        <mxCell id="0mtgPo0dhXCJ6GV9Q62t-12" style="edgeStyle=orthogonalEdgeStyle;rounded=0;orthogonalLoop=1;jettySize=auto;html=1;exitX=1;exitY=0.5;exitDx=0;exitDy=0;exitPerimeter=0;entryX=0;entryY=0.5;entryDx=0;entryDy=0;" edge="1" parent="1" source="0mtgPo0dhXCJ6GV9Q62t-5" target="0mtgPo0dhXCJ6GV9Q62t-4">
          <mxGeometry relative="1" as="geometry" />
        </mxCell>
        <mxCell id="0mtgPo0dhXCJ6GV9Q62t-16" value="" style="edgeStyle=orthogonalEdgeStyle;rounded=0;orthogonalLoop=1;jettySize=auto;html=1;" edge="1" parent="1" source="0mtgPo0dhXCJ6GV9Q62t-5" target="0mtgPo0dhXCJ6GV9Q62t-15">
          <mxGeometry relative="1" as="geometry" />
        </mxCell>
        <mxCell id="0mtgPo0dhXCJ6GV9Q62t-5" value="RATE MANAGEMENT SERVICES DB" style="shape=cylinder3;whiteSpace=wrap;html=1;boundedLbl=1;backgroundOutline=1;size=15;" vertex="1" parent="1">
          <mxGeometry x="742.5" y="190" width="110" height="120" as="geometry" />
        </mxCell>
        <mxCell id="0mtgPo0dhXCJ6GV9Q62t-9" value="" style="edgeStyle=orthogonalEdgeStyle;rounded=0;orthogonalLoop=1;jettySize=auto;html=1;exitX=1;exitY=0.5;exitDx=0;exitDy=0;" edge="1" parent="1" source="0mtgPo0dhXCJ6GV9Q62t-2" target="0mtgPo0dhXCJ6GV9Q62t-4">
          <mxGeometry relative="1" as="geometry">
            <mxPoint x="1072.5" y="700" as="sourcePoint" />
          </mxGeometry>
        </mxCell>
        <mxCell id="0mtgPo0dhXCJ6GV9Q62t-13" value="RATING OUTPUT&lt;br&gt;(PREMIUM COST)" style="ellipse;whiteSpace=wrap;html=1;rounded=1;" vertex="1" parent="1">
          <mxGeometry x="1097.5" y="210" width="80" height="80" as="geometry" />
        </mxCell>
        <mxCell id="0mtgPo0dhXCJ6GV9Q62t-15" value="&lt;ol&gt;&lt;li&gt;Rate Tables&lt;/li&gt;&lt;li&gt;Rating Keys&lt;/li&gt;&lt;li&gt;Rating Formulas&lt;/li&gt;&lt;li&gt;Rating Steps&lt;/li&gt;&lt;li&gt;Rating Factors&lt;/li&gt;&lt;/ol&gt;" style="whiteSpace=wrap;html=1;align=left;" vertex="1" parent="1">
          <mxGeometry x="730" y="20" width="135" height="120" as="geometry" />
        </mxCell>
      </root>
    </mxGraphModel>
  </diagram>
</mxfile>
